<?xml version="1.0" standalone="no"?>
<!DOCTYPE svg PUBLIC "-//W3C//DTD SVG 1.1//EN" "http://www.w3.org/Graphics/SVG/1.1/DTD/svg11.dtd" >
<!--
2013-9-30: Created.
-->
<svg>
<metadata>
Created by iconfont
</metadata>
<defs>

<font id="iconfont" horiz-adv-x="1024" >
  <font-face
    font-family="iconfont"
    font-weight="500"
    font-stretch="normal"
    units-per-em="1024"
    ascent="896"
    descent="-128"
  />
    <missing-glyph />
    
    <glyph glyph-name="x" unicode="x" horiz-adv-x="1001"
d="M281 543q-27 -1 -53 -1h-83q-18 0 -36.5 -6t-32.5 -18.5t-23 -32t-9 -45.5v-76h912v41q0 16 -0.5 30t-0.5 18q0 13 -5 29t-17 29.5t-31.5 22.5t-49.5 9h-133v-97h-438v97zM955 310v-52q0 -23 0.5 -52t0.5 -58t-10.5 -47.5t-26 -30t-33 -16t-31.5 -4.5q-14 -1 -29.5 -0.5
t-29.5 0.5h-32l-45 128h-439l-44 -128h-29h-34q-20 0 -45 1q-25 0 -41 9.5t-25.5 23t-13.5 29.5t-4 30v167h911zM163 247q-12 0 -21 -8.5t-9 -21.5t9 -21.5t21 -8.5q13 0 22 8.5t9 21.5t-9 21.5t-22 8.5zM316 123q-8 -26 -14 -48q-5 -19 -10.5 -37t-7.5 -25t-3 -15t1 -14.5
t9.5 -10.5t21.5 -4h37h67h81h80h64h36q23 0 34 12t2 38q-5 13 -9.5 30.5t-9.5 34.5q-5 19 -11 39h-368zM336 498v228q0 11 2.5 23t10 21.5t20.5 15.5t34 6h188q31 0 51.5 -14.5t20.5 -52.5v-227h-327z" />
    

    
    <glyph glyph-name="caidanicon_kucunxinxi" unicode="&#58882;" d="M427 437H88V776h339z m-259 80h179V696H168zM936 437H536V773h290a110.13 110.13 0 0 0 110-110z m-320 80h240V663a30 30 0 0 1-30 30H616zM424-11H198A110.13 110.13 0 0 0 88 99V325h336zM168 245v-146a30 30 0 0 1 30-30h146V245zM872-11H536V325h336z m-256 80h176V245H616z"  horiz-adv-x="1024" />

    
    <glyph glyph-name="caidanicon_lianluxinxi" unicode="&#58883;" d="M832 535H192a40 40 0 0 0 0 80h565.26l-86.54 129.81a40 40 0 1 0 66.56 44.38l128-192A40 40 0 0 0 832 535zM320-41a40 40 0 0 0-33.32 17.81l-128 192A40 40 0 0 0 192 231h640a40 40 0 0 0 0-80H266.74l86.54-129.81A40 40 0 0 0 320-41zM832 343H192a40 40 0 0 0 0 80h640a40 40 0 0 0 0-80z"  horiz-adv-x="1024" />

    
    <glyph glyph-name="caidanicon_lianxirenxinxi" unicode="&#58884;" d="M826 807H198A110.13 110.13 0 0 1 88 697v-58a40 40 0 0 1 80 0v58a30 30 0 0 0 30 30h628a30 30 0 0 0 30-30v-628a30 30 0 0 0-30-30H198a30 30 0 0 0-30 30v58a40 40 0 0 1-80 0v-58a110.13 110.13 0 0 1 110-110h628a110.13 110.13 0 0 1 110 110V697A110.13 110.13 0 0 1 826 807zM252 126a40 40 0 0 1 80 0c0 110.28 89.72 200 200 200s200-89.72 200-200a40 40 0 0 1 80 0 280.65 280.65 0 0 1-157.44 251.89A170.39 170.39 0 0 1 703 497c0 94.29-76.71 171-171 171s-171-76.71-171-171a170.39 170.39 0 0 1 48.44-119.11A280.65 280.65 0 0 1 252 126z m189 371a91 91 0 1 0 91-91 91.1 91.1 0 0 0-91 91zM96 471h160a40 40 0 0 1 0 80H96a40 40 0 0 1 0-80zM96 344h160a40 40 0 0 1 0 80H96a40 40 0 0 1 0-80zM192 215a40 40 0 0 1 0 80H96a40 40 0 0 1 0-80z"  horiz-adv-x="1024" />

    
    <glyph glyph-name="caidanicon_jifang" unicode="&#58885;" d="M826 423H616V697A110.13 110.13 0 0 1 506 807H262a110.13 110.13 0 0 1-110-110v-738h784V313a110.13 110.13 0 0 1-110 110zM536 39H232V697a30 30 0 0 0 30 30h244a30 30 0 0 0 30-30v-658z m320 0H616V343h210a30 30 0 0 0 30-30zM448 615H320a40 40 0 0 1 0-80h128a40 40 0 0 1 0 80zM448 423H320a40 40 0 0 1 0-80h128a40 40 0 0 1 0 80zM448 231H320a40 40 0 0 1 0-80h128a40 40 0 0 1 0 80zM782 231h-92a40 40 0 0 1 0-80h92a40 40 0 0 1 0 80z"  horiz-adv-x="1024" />

    
    <glyph glyph-name="caidanicon_kehuxinxi" unicode="&#58886;" d="M853 248h-36.06a393.31 393.31 0 0 1-138.21 147 389.25 389.25 0 0 1-63.43 31.87q7.4 6.22 14.33 13.13A223.19 223.19 0 1 1 314 440c4.6-4.6 9.38-9 14.29-13.11q-4.54-1.78-9.07-3.7A391.7 391.7 0 0 1 79.81 62v-40H405v-30a80.09 80.09 0 0 1 80-80h368a80.09 80.09 0 0 1 80 80V168a80.09 80.09 0 0 1-80 80zM471.81 741C550.76 741 615 676.76 615 597.81s-64.24-143.19-143.19-143.19-143.19 64.23-143.19 143.19S392.85 741 471.81 741zM405 168v-66H162.33a312.12 312.12 0 0 0 474.12 225.08A313.43 313.43 0 0 0 722.33 248H485a80.09 80.09 0 0 1-80-80z m448-176H485V168h368v-176zM765 119H573a40 40 0 0 1 0-80h192a40 40 0 0 1 0 80z"  horiz-adv-x="1024" />

    
    <glyph glyph-name="caidanicon_fangwenkongzhi" unicode="&#58887;" d="M511.81 336a311.37 311.37 0 0 0 208.46-79.86 40 40 0 1 1 53.47 59.5 391.22 391.22 0 0 1-118.46 73.19q7.41 6.24 14.35 13.16A223.19 223.19 0 1 1 354 402q6.9-6.9 14.29-13.11-4.54-1.78-9.07-3.7A391.7 391.7 0 0 1 119.81 24a40 40 0 0 1 40-40H447a40 40 0 0 1 0 80H202.33a312.11 312.11 0 0 0 309.48 272z m0 367C590.76 703 655 638.76 655 559.81s-64.24-143.19-143.19-143.19-143.19 64.23-143.19 143.19S432.85 703 511.81 703zM920 287a40 40 0 0 1-56-8L698.45 58.26999999999998 603 145.51999999999998a40 40 0 0 1-54-59l128-117A40 40 0 0 1 704-41c1.24 0 2.48 0.06 3.73 0.17A40 40 0 0 1 736-25l192 256a40 40 0 0 1-8 56z"  horiz-adv-x="1024" />

    
    <glyph glyph-name="caidanicon_renwu" unicode="&#58888;" d="M936 344.09000000000003V671.46C936 735.72 883.8 788 819.64 788H204.36C140.2 788 88 735.72 88 671.46v-595.92C88 11.279999999999973 140.2-41 204.36-41H535a39.73 39.73 0 0 1 8.22 0.85A289.73 289.73 0 0 1 936 344.09000000000003zM168 75.53999999999996V671.46A36.49 36.49 0 0 0 204.36 708h615.28A36.49 36.49 0 0 0 856 671.46v-227.6A289.53 289.53 0 0 1 447.54 39H204.36A36.49 36.49 0 0 0 168 75.53999999999996zM675.5 8C560 8 466 102 466 217.5S560 427 675.5 427 885 333 885 217.5 791 8 675.5 8zM766.4 305.77l-105-124.65-66.25 44.16a40 40 0 1 1-44.38-66.56l125.75-83.84 151 179.35a40 40 0 1 1-61.2 51.54z"  horiz-adv-x="1024" />

    
    <glyph glyph-name="caidanicon_liuliangfenxi" unicode="&#58889;" d="M864 23H192a40 40 0 0 0-40 40V703a40 40 0 0 0 80 0v-600h632a40 40 0 0 0 0-80zM320 255a40 40 0 0 0-33.24 62.19l128 192a40 40 0 0 0 61.64 6l158.47-159.3 165.19 219.19a40 40 0 0 0 63.88-48.16l-193-256a40 40 0 0 0-60.3-4.13l-156.5 157.32-100.86-151.3A40 40 0 0 0 320 255z"  horiz-adv-x="1024" />

    
    <glyph glyph-name="caidanicon_shebeibaojing" unicode="&#58890;" d="M768 39H256a40 40 0 0 1 0-80h512a40 40 0 0 1 0 80zM528 615h-32a280 280 0 0 1-280-280v-144a40 40 0 0 1 40-40h512a40 40 0 0 1 40 40V335a280 280 0 0 1-280 280z m200-384H488V364a40 40 0 0 1-80 0v-133H296V335c0 110.28 89.72 200 200 200h32c110.28 0 200-89.72 200-200zM512 687a40 40 0 0 1 40 40v61a40 40 0 0 1-80 0v-61a40 40 0 0 1 40-40zM211.85 581.22l-43.13 43.13a40 40 0 1 1-56.57-56.57l43.13-43.13a40 40 0 0 1 56.57 56.57zM914.36 618.8299999999999a40 40 0 0 1-56.56 0.59l-43.58-42.69a40 40 0 0 1 56-57.15l43.58 42.69a40 40 0 0 1 0.56 56.56z"  horiz-adv-x="1024" />

    
    <glyph glyph-name="caidanicon_STEPshebei" unicode="&#58891;" d="M826 112H198A110.13 110.13 0 0 0 88 222V633a110.13 110.13 0 0 0 110 110h628a110.13 110.13 0 0 0 110-110v-411a110.13 110.13 0 0 0-110-110zM198 663a30 30 0 0 1-30-30v-411a30 30 0 0 1 30-30h628a30 30 0 0 1 30 30V633a30 30 0 0 1-30 30zM370.5 294C291.93 294 228 357.92999999999995 228 436.5S291.93 579 370.5 579 513 515.0699999999999 513 436.5 449.07 294 370.5 294z m0 205a62.5 62.5 0 1 1 62.5-62.5 62.57 62.57 0 0 1-62.5 62.5zM748 471H620a40 40 0 0 0 0 80h128a40 40 0 0 0 0-80zM748 301H620a40 40 0 0 0 0 80h128a40 40 0 0 0 0-80zM896-41H128a40 40 0 0 0 0 80h768a40 40 0 0 0 0-80z"  horiz-adv-x="1024" />

    
    <glyph glyph-name="caidanicon_shebeigengxin" unicode="&#58892;" d="M920.66 529.49L536.89 830a40 40 0 0 1-49.3 0L103.36 529.51A40 40 0 0 1 128 458h152v-267a40 40 0 0 1 40-40h384a40 40 0 0 1 40 40V458h152a40 40 0 0 1 24.66 71.49zM704 538a40 40 0 0 1-40-40v-267H360V498a40 40 0 0 1-40 40h-75.94l268.16 209.74L780.05 538zM768 39H256a40 40 0 0 1 0-80h512a40 40 0 0 1 0 80z"  horiz-adv-x="1024" />

    
    <glyph glyph-name="caidanicon_yingyongpeizhi" unicode="&#58893;" d="M384 509a128.21 128.21 0 0 1-88 121.59V703a40 40 0 0 1-80 0v-72.41a128 128 0 0 1 0.24-243.26A38.73 38.73 0 0 1 216 383v-320a40 40 0 0 1 80 0V383a38.73 38.73 0 0 1-0.24 4.33A128.24 128.24 0 0 1 384 509z m-128-48a48 48 0 1 0 48 48 48.05 48.05 0 0 0-48-48zM552 376.59000000000003V703a40 40 0 0 1-80 0v-326.41a128 128 0 0 1 0-243.18V63a40 40 0 0 1 80 0v70.41a128 128 0 0 1 0 243.18zM512 207a48 48 0 1 0 48 48 48.05 48.05 0 0 0-48-48zM896 511a128.21 128.21 0 0 1-88 121.59V703a40 40 0 0 1-80 0v-70.41a128 128 0 0 1 0-243.18V63a40 40 0 0 1 80 0V389.41A128.21 128.21 0 0 1 896 511z m-128-48a48 48 0 1 0 48 48 48.05 48.05 0 0 0-48-48z"  horiz-adv-x="1024" />

    
    <glyph glyph-name="caidanicon_rizhiliuliang" unicode="&#58894;" d="M826-41H198A110.13 110.13 0 0 0 88 69V697A110.13 110.13 0 0 0 198 807h628a110.13 110.13 0 0 0 110-110v-628a110.13 110.13 0 0 0-110-110zM198 727a30 30 0 0 1-30-30v-628a30 30 0 0 1 30-30h628a30 30 0 0 1 30 30V697a30 30 0 0 1-30 30zM320 313a40 40 0 0 0-38 52.66l64 192a40 40 0 0 0 66.09 15.78L565 422.13 668.28 627a40 40 0 1 0 71.44-36l-128-254a40 40 0 0 0-63.86-10.43L401.6 471.31 358 340.35A40 40 0 0 0 320 313zM704 150.33000000000004H320a40 40 0 0 0 0 80h384a40 40 0 0 0 0-80z"  horiz-adv-x="1024" />

    
    <glyph glyph-name="caidanicon_TWS" unicode="&#58895;" d="M268 215c-92.64 0-168 75.36-168 168s75.36 168 168 168 168-75.36 168-168-75.36-168-168-168z m0 256a88 88 0 1 1 88-88 88.1 88.1 0 0 1-88 88zM719.5 551C644.23 551 583 612.23 583 687.5S644.23 824 719.5 824 856 762.77 856 687.5 794.77 551 719.5 551z m0 193a56.5 56.5 0 1 1 56.5-56.5 56.57 56.57 0 0 1-56.5 56.5zM719.5-42C644.23-42 583 19.230000000000018 583 94.5S644.23 231 719.5 231 856 169.76999999999998 856 94.5 794.77-42 719.5-42z m0 193a56.5 56.5 0 1 1 56.5-56.5 56.57 56.57 0 0 1-56.5 56.5zM371 419a40 40 0 0 0-22.26 73.26l268 179a40 40 0 1 0 44.44-66.52l-268-179A39.83 39.83 0 0 0 371 419zM639 107.71000000000004a39.81 39.81 0 0 0-17.33 4L334.64 250a40 40 0 1 0 34.72 72l287-138.28a40 40 0 0 0-17.39-76z"  horiz-adv-x="1024" />

    
    <glyph glyph-name="caidanicon_gerenzhongxin" unicode="&#58896;" d="M511.81 336a311.37 311.37 0 0 0 208.46-79.86 40 40 0 1 1 53.47 59.5 391.22 391.22 0 0 1-118.46 73.19q7.41 6.24 14.35 13.16A223.19 223.19 0 1 1 354 402q6.9-6.9 14.29-13.11-4.54-1.78-9.07-3.7A391.7 391.7 0 0 1 119.81 24a40 40 0 0 1 40-40H447a40 40 0 0 1 0 80H202.33a312.11 312.11 0 0 0 309.48 272z m0 367C590.76 703 655 638.76 655 559.81s-64.24-143.19-143.19-143.19-143.19 64.23-143.19 143.19S432.85 703 511.81 703zM920 287a40 40 0 0 1-56-8L698.45 58.27 603 145.52a40 40 0 0 1-54-59l128-117A40 40 0 0 1 704-41c1.24 0 2.48 0.06 3.73 0.17A40 40 0 0 1 736-25l192 256a40 40 0 0 1-8 56z"  horiz-adv-x="1024" />

    
    <glyph glyph-name="caidanicon_anquankongzhi" unicode="&#58897;" d="M517-75c-28.31 0-65.4 10.63-116.75 33.45-37.05 16.47-81.16 39.29-131.1 67.82-84.22 48.13-155.35 95.46-158.34 97.45A40 40 0 0 0 93 157V669a40 40 0 0 0 4.83 19c4.58 8.46 24.35 38.17 86.55 65.56C261.82 787.71 373.73 805 517 805s255.18-17.29 332.62-51.39c62.2-27.39 82-57.1 86.55-65.56A40 40 0 0 0 941 669v-512a40 40 0 0 0-17.81-33.28c-3-2-74.12-49.32-158.34-97.45-49.94-28.53-94.05-51.35-131.1-67.82C582.4-64.37 545.31-75 517-75zM173 178.63c26.31-17 78.68-50.25 136.21-83.11 143-81.7 193-90.52 207.79-90.52s64.85 8.84 208.15 90.73c57.47 32.83 109.62 65.93 135.85 82.9V654.11C840.4 672.37 759.89 725 517 725c-164.54 0-254.17-24.26-300.38-44.61-23.33-10.27-36.62-19.9-43.62-26.19zM901 157z m-34 491zM515.6 261.33a39.9 39.9 0 0 0-21.17 6.07l-159.62 99.67a40 40 0 0 0 42.38 67.86l132.45-82.71 201.5 204.2a40 40 0 1 0 57-56.19l-224-227a40 40 0 0 0-28.54-11.9z"  horiz-adv-x="1024" />

    
    <glyph glyph-name="caidanicon_jifang1" unicode="&#58898;" d="M826 423H616V697A110.13 110.13 0 0 1 506 807H262a110.13 110.13 0 0 1-110-110v-738h784V313a110.13 110.13 0 0 1-110 110zM536 39H232V697a30 30 0 0 0 30 30h244a30 30 0 0 0 30-30v-658z m320 0H616V343h210a30 30 0 0 0 30-30zM448 615H320a40 40 0 0 1 0-80h128a40 40 0 0 1 0 80zM448 423H320a40 40 0 0 1 0-80h128a40 40 0 0 1 0 80zM448 231H320a40 40 0 0 1 0-80h128a40 40 0 0 1 0 80zM782 231h-92a40 40 0 0 1 0-80h92a40 40 0 0 1 0 80z"  horiz-adv-x="1024" />

    
    <glyph glyph-name="caidanicon_kucunxinxi1" unicode="&#58899;" d="M427 437H88V776h339z m-259 80h179V696H168zM936 437H536V773h290a110.13 110.13 0 0 0 110-110z m-320 80h240V663a30 30 0 0 1-30 30H616zM424-11H198A110.13 110.13 0 0 0 88 99V325h336zM168 245v-146a30 30 0 0 1 30-30h146V245zM872-11H536V325h336z m-256 80h176V245H616z"  horiz-adv-x="1024" />

    
    <glyph glyph-name="caidanicon_kehuxinxi1" unicode="&#58900;" d="M853 248h-36.06a393.31 393.31 0 0 1-138.21 147 389.25 389.25 0 0 1-63.43 31.87q7.4 6.22 14.33 13.13A223.19 223.19 0 1 1 314 440c4.6-4.6 9.38-9 14.29-13.11q-4.54-1.78-9.07-3.7A391.7 391.7 0 0 1 79.81 62v-40H405v-30a80.09 80.09 0 0 1 80-80h368a80.09 80.09 0 0 1 80 80V168a80.09 80.09 0 0 1-80 80zM471.81 741C550.76 741 615 676.76 615 597.81s-64.24-143.19-143.19-143.19-143.19 64.23-143.19 143.19S392.85 741 471.81 741zM405 168v-66H162.33a312.12 312.12 0 0 0 474.12 225.08A313.43 313.43 0 0 0 722.33 248H485a80.09 80.09 0 0 1-80-80z m448-176H485V168h368v-176zM765 119H573a40 40 0 0 1 0-80h192a40 40 0 0 1 0 80z"  horiz-adv-x="1024" />

    
    <glyph glyph-name="caidanicon_lianxirenxinxi1" unicode="&#58901;" d="M826 807H198A110.13 110.13 0 0 1 88 697v-58a40 40 0 0 1 80 0v58a30 30 0 0 0 30 30h628a30 30 0 0 0 30-30v-628a30 30 0 0 0-30-30H198a30 30 0 0 0-30 30v58a40 40 0 0 1-80 0v-58a110.13 110.13 0 0 1 110-110h628a110.13 110.13 0 0 1 110 110V697A110.13 110.13 0 0 1 826 807zM252 126a40 40 0 0 1 80 0c0 110.28 89.72 200 200 200s200-89.72 200-200a40 40 0 0 1 80 0 280.65 280.65 0 0 1-157.44 251.89A170.39 170.39 0 0 1 703 497c0 94.29-76.71 171-171 171s-171-76.71-171-171a170.39 170.39 0 0 1 48.44-119.11A280.65 280.65 0 0 1 252 126z m189 371a91 91 0 1 0 91-91 91.1 91.1 0 0 0-91 91zM96 471h160a40 40 0 0 1 0 80H96a40 40 0 0 1 0-80zM96 344h160a40 40 0 0 1 0 80H96a40 40 0 0 1 0-80zM192 215a40 40 0 0 1 0 80H96a40 40 0 0 1 0-80z"  horiz-adv-x="1024" />

    
    <glyph glyph-name="caidanicon_renwu1" unicode="&#58902;" d="M936 344.09V671.46C936 735.72 883.8 788 819.64 788H204.36C140.2 788 88 735.72 88 671.46v-595.92C88 11.28 140.2-41 204.36-41H535a39.73 39.73 0 0 1 8.22 0.85A289.73 289.73 0 0 1 936 344.09zM168 75.54V671.46A36.49 36.49 0 0 0 204.36 708h615.28A36.49 36.49 0 0 0 856 671.46v-227.6A289.53 289.53 0 0 1 447.54 39H204.36A36.49 36.49 0 0 0 168 75.54zM675.5 8C560 8 466 102 466 217.5S560 427 675.5 427 885 333 885 217.5 791 8 675.5 8zM766.4 305.77l-105-124.65-66.25 44.16a40 40 0 1 1-44.38-66.56l125.75-83.84 151 179.35a40 40 0 1 1-61.2 51.54z"  horiz-adv-x="1024" />

    
    <glyph glyph-name="caidanicon_liuliangfenxi1" unicode="&#58903;" d="M864 23H192a40 40 0 0 0-40 40V703a40 40 0 0 0 80 0v-600h632a40 40 0 0 0 0-80zM320 255a40 40 0 0 0-33.24 62.19l128 192a40 40 0 0 0 61.64 6l158.47-159.3 165.19 219.19a40 40 0 0 0 63.88-48.16l-193-256a40 40 0 0 0-60.3-4.13l-156.5 157.32-100.86-151.3A40 40 0 0 0 320 255z"  horiz-adv-x="1024" />

    
    <glyph glyph-name="caidanicon_lianluxinxi1" unicode="&#58904;" d="M832 535H192a40 40 0 0 0 0 80h565.26l-86.54 129.81a40 40 0 1 0 66.56 44.38l128-192A40 40 0 0 0 832 535zM320-41a40 40 0 0 0-33.32 17.81l-128 192A40 40 0 0 0 192 231h640a40 40 0 0 0 0-80H266.74l86.54-129.81A40 40 0 0 0 320-41zM832 343H192a40 40 0 0 0 0 80h640a40 40 0 0 0 0-80z"  horiz-adv-x="1024" />

    
    <glyph glyph-name="caidanicon_shebeibaojing1" unicode="&#58905;" d="M768 39H256a40 40 0 0 1 0-80h512a40 40 0 0 1 0 80zM528 615h-32a280 280 0 0 1-280-280v-144a40 40 0 0 1 40-40h512a40 40 0 0 1 40 40V335a280 280 0 0 1-280 280z m200-384H488V364a40 40 0 0 1-80 0v-133H296V335c0 110.28 89.72 200 200 200h32c110.28 0 200-89.72 200-200zM512 687a40 40 0 0 1 40 40v61a40 40 0 0 1-80 0v-61a40 40 0 0 1 40-40zM211.85 581.22l-43.13 43.13a40 40 0 1 1-56.57-56.57l43.13-43.13a40 40 0 0 1 56.57 56.57zM914.36 618.83a40 40 0 0 1-56.56 0.59l-43.58-42.69a40 40 0 0 1 56-57.15l43.58 42.69a40 40 0 0 1 0.56 56.56z"  horiz-adv-x="1024" />

    
    <glyph glyph-name="caidanicon_rizhiliuliang1" unicode="&#58906;" d="M826-41H198A110.13 110.13 0 0 0 88 69V697A110.13 110.13 0 0 0 198 807h628a110.13 110.13 0 0 0 110-110v-628a110.13 110.13 0 0 0-110-110zM198 727a30 30 0 0 1-30-30v-628a30 30 0 0 1 30-30h628a30 30 0 0 1 30 30V697a30 30 0 0 1-30 30zM320 313a40 40 0 0 0-38 52.66l64 192a40 40 0 0 0 66.09 15.78L565 422.13 668.28 627a40 40 0 1 0 71.44-36l-128-254a40 40 0 0 0-63.86-10.43L401.6 471.31 358 340.35A40 40 0 0 0 320 313zM704 150.33H320a40 40 0 0 0 0 80h384a40 40 0 0 0 0-80z"  horiz-adv-x="1024" />

    
    <glyph glyph-name="caidanicon_liuliangtongji" unicode="&#58907;" d="M506-55a433.09 433.09 0 0 0-144.77 841.19A40 40 0 1 0 388 710.8a353.06 353.06 0 1 1 446.53-462.23A40 40 0 1 0 909 219.22 433.16 433.16 0 0 0 506-55zM916 347H523a40 40 0 0 0-40 40V780a40 40 0 0 0 40 40 432.66 432.66 0 0 0 433-433 40 40 0 0 0-40-40z m-353 80h310.77A353.19 353.19 0 0 1 563 737.77z"  horiz-adv-x="1024" />

    
    <glyph glyph-name="caidanicon_shebeigengxin1" unicode="&#58908;" d="M920.66 529.49L536.89 830a40 40 0 0 1-49.3 0L103.36 529.51A40 40 0 0 1 128 458h152v-267a40 40 0 0 1 40-40h384a40 40 0 0 1 40 40V458h152a40 40 0 0 1 24.66 71.49zM704 538a40 40 0 0 1-40-40v-267H360V498a40 40 0 0 1-40 40h-75.94l268.16 209.74L780.05 538zM768 39H256a40 40 0 0 1 0-80h512a40 40 0 0 1 0 80z"  horiz-adv-x="1024" />

    
    <glyph glyph-name="caidanicon_yingyongpeizhi1" unicode="&#58909;" d="M384 509a128.21 128.21 0 0 1-88 121.59V703a40 40 0 0 1-80 0v-72.41a128 128 0 0 1 0.24-243.26A38.73 38.73 0 0 1 216 383v-320a40 40 0 0 1 80 0V383a38.73 38.73 0 0 1-0.24 4.33A128.24 128.24 0 0 1 384 509z m-128-48a48 48 0 1 0 48 48 48.05 48.05 0 0 0-48-48zM552 376.59V703a40 40 0 0 1-80 0v-326.41a128 128 0 0 1 0-243.18V63a40 40 0 0 1 80 0v70.41a128 128 0 0 1 0 243.18zM512 207a48 48 0 1 0 48 48 48.05 48.05 0 0 0-48-48zM896 511a128.21 128.21 0 0 1-88 121.59V703a40 40 0 0 1-80 0v-70.41a128 128 0 0 1 0-243.18V63a40 40 0 0 1 80 0V389.41A128.21 128.21 0 0 1 896 511z m-128-48a48 48 0 1 0 48 48 48.05 48.05 0 0 0-48-48z"  horiz-adv-x="1024" />

    
    <glyph glyph-name="caidanicon_STEPshebei1" unicode="&#58910;" d="M826 112H198A110.13 110.13 0 0 0 88 222V633a110.13 110.13 0 0 0 110 110h628a110.13 110.13 0 0 0 110-110v-411a110.13 110.13 0 0 0-110-110zM198 663a30 30 0 0 1-30-30v-411a30 30 0 0 1 30-30h628a30 30 0 0 1 30 30V633a30 30 0 0 1-30 30zM370.5 294C291.93 294 228 357.93 228 436.5S291.93 579 370.5 579 513 515.07 513 436.5 449.07 294 370.5 294z m0 205a62.5 62.5 0 1 1 62.5-62.5 62.57 62.57 0 0 1-62.5 62.5zM748 471H620a40 40 0 0 0 0 80h128a40 40 0 0 0 0-80zM748 301H620a40 40 0 0 0 0 80h128a40 40 0 0 0 0-80zM896-41H128a40 40 0 0 0 0 80h768a40 40 0 0 0 0-80z"  horiz-adv-x="1024" />

    
    <glyph glyph-name="caidanicon_TWS1" unicode="&#58911;" d="M268 215c-92.64 0-168 75.36-168 168s75.36 168 168 168 168-75.36 168-168-75.36-168-168-168z m0 256a88 88 0 1 1 88-88 88.1 88.1 0 0 1-88 88zM719.5 551C644.23 551 583 612.23 583 687.5S644.23 824 719.5 824 856 762.77 856 687.5 794.77 551 719.5 551z m0 193a56.5 56.5 0 1 1 56.5-56.5 56.57 56.57 0 0 1-56.5 56.5zM719.5-42C644.23-42 583 19.23 583 94.5S644.23 231 719.5 231 856 169.77 856 94.5 794.77-42 719.5-42z m0 193a56.5 56.5 0 1 1 56.5-56.5 56.57 56.57 0 0 1-56.5 56.5zM371 419a40 40 0 0 0-22.26 73.26l268 179a40 40 0 1 0 44.44-66.52l-268-179A39.83 39.83 0 0 0 371 419zM639 107.71a39.81 39.81 0 0 0-17.33 4L334.64 250a40 40 0 1 0 34.72 72l287-138.28a40 40 0 0 0-17.39-76z"  horiz-adv-x="1024" />

    


  </font>
</defs>
</svg>
